<?xml version="1.0" standalone="no"?>
<!DOCTYPE svg PUBLIC "-//W3C//DTD SVG 20010904//EN"
 "http://www.w3.org/TR/2001/REC-SVG-20010904/DTD/svg10.dtd">
<svg version="1.0" xmlns="http://www.w3.org/2000/svg"
 width="568.000000pt" height="603.000000pt" viewBox="0 0 568.000000 603.000000"
 preserveAspectRatio="xMidYMid meet">

<g transform="translate(0.000000,603.000000) scale(0.100000,-0.100000)"
fill="#000000" stroke="none">
<path d="M3024 5925 c-465 -82 -849 -423 -978 -868 -31 -107 -50 -286 -41
-388 l6 -77 -47 -7 c-256 -38 -680 -320 -931 -619 -109 -131 -153 -217 -153
-301 0 -110 50 -234 155 -380 32 -44 61 -82 65 -85 4 -3 10 -52 13 -110 9
-173 62 -296 178 -416 l50 -51 -73 -28 c-40 -15 -108 -45 -151 -67 -88 -44
-630 -403 -665 -440 -68 -74 -6 -208 95 -208 16 0 63 20 105 45 43 25 80 45
83 45 7 0 105 -69 325 -230 146 -107 166 -124 171 -154 l5 -34 -50 -6 c-40 -4
-57 -12 -79 -36 -36 -40 -35 -79 3 -147 17 -29 30 -55 30 -57 0 -2 -21 4 -48
14 -102 39 -236 34 -326 -12 -79 -40 -230 -217 -459 -539 -160 -226 -191 -288
-152 -303 39 -15 690 117 856 173 131 44 160 63 222 144 42 55 58 103 66 201
l6 69 38 -55 c69 -101 148 -105 202 -11 26 43 26 43 54 28 31 -16 31 -16 109
-418 l39 -198 -69 -51 c-38 -28 -76 -64 -84 -81 -34 -64 6 -157 74 -178 45
-13 82 0 177 60 33 21 160 100 283 174 337 206 462 320 462 422 0 32 -4 38
-36 51 -45 19 -108 8 -238 -42 -49 -19 -91 -32 -94 -29 -7 7 36 278 49 311 6
18 25 28 81 45 477 139 679 215 1033 388 690 336 1266 787 1701 1331 310 387
516 826 502 1071 -5 87 -23 114 -108 156 -94 47 -188 64 -395 70 -266 8 -510
-20 -806 -93 -77 -19 -142 -34 -144 -34 -2 0 22 37 55 82 102 143 174 309 207
477 20 106 22 318 4 421 -45 251 -167 479 -352 654 -163 155 -328 246 -548
302 -123 32 -354 41 -477 19z m36 -77 c-243 -103 -396 -216 -534 -393 -167
-213 -253 -439 -263 -687 l-6 -126 -48 -7 c-27 -4 -65 -15 -85 -26 -21 -10
-40 -16 -43 -13 -12 12 -5 300 8 359 98 437 413 766 842 879 52 14 108 25 124
25 l30 0 -25 -11z m497 -29 c118 -38 223 -90 321 -158 71 -51 103 -84 40 -41
-67 45 -198 100 -284 121 -116 28 -307 23 -429 -10 -290 -80 -543 -287 -677
-556 -78 -155 -110 -290 -110 -463 0 -68 -3 -122 -7 -120 -3 2 -23 10 -43 18
-33 12 -38 18 -40 50 -22 440 254 890 667 1084 137 65 285 104 397 105 50 1
94 -7 165 -30z m134 -237 c91 -36 175 -92 255 -172 95 -94 157 -180 197 -273
29 -66 31 -81 32 -187 0 -110 -18 -216 -35 -205 -4 3 -11 22 -15 42 -11 63
-82 234 -130 314 -131 220 -278 303 -560 316 -149 6 -308 -16 -475 -66 -52
-16 -97 -27 -99 -25 -3 3 15 25 40 50 94 96 261 185 414 218 105 23 302 17
376 -12z m-878 -736 c46 -35 71 -88 71 -152 0 -66 -26 -116 -75 -143 -69 -39
-150 -20 -201 49 -21 29 -34 112 -24 162 7 39 50 92 87 107 39 17 103 7 142
-23z m-449 -310 c234 -115 334 -491 169 -636 -47 -41 -57 -38 -32 11 12 25 23
69 26 113 13 172 -87 357 -238 441 -46 25 -65 30 -126 30 -69 0 -71 1 -55 19
54 61 159 70 256 22z m-395 -27 c17 -6 31 -12 31 -12 0 -1 -9 -29 -19 -62 -37
-117 -35 -276 3 -365 5 -12 -5 -23 -36 -40 -24 -12 -78 -47 -120 -77 -61 -42
-86 -53 -116 -53 -21 0 -59 -10 -84 -23 l-46 -23 -94 120 c-51 67 -108 136
-127 154 -29 28 -31 35 -19 45 209 168 397 282 538 328 30 10 55 18 56 18 1 1
15 -4 33 -10z m861 -79 c41 -41 12 -120 -44 -120 -29 0 -56 34 -56 70 0 61 59
91 100 50z m-583 -21 c104 -50 198 -193 209 -320 21 -229 -159 -304 -317 -131
-56 62 -80 102 -103 181 -30 100 -16 192 37 249 43 47 105 54 174 21z m1954
-208 c-32 -61 -133 -190 -198 -252 -93 -89 -271 -170 -450 -206 -138 -27 -340
-23 -468 11 -118 30 -276 106 -358 171 l-58 46 7 47 c3 26 8 49 10 51 3 3 19
-9 37 -25 121 -113 296 -197 467 -224 197 -31 454 11 635 103 95 48 216 138
300 223 49 50 91 92 93 93 1 0 -7 -17 -17 -38z m-2798 -230 c130 -166 125
-154 91 -199 -48 -63 -137 -147 -187 -176 -74 -44 -135 -35 -201 31 -58 57
-71 134 -35 206 38 76 198 247 230 247 9 0 54 -49 102 -109z m3851 48 c112
-15 204 -46 238 -79 25 -25 28 -36 28 -92 -1 -207 -172 -576 -422 -908 -48
-63 -99 -128 -114 -145 l-26 -30 26 35 c234 314 414 679 446 901 19 131 -4
184 -95 224 -105 47 -202 60 -445 60 -246 -1 -378 -16 -634 -75 -71 -17 -131
-28 -133 -27 -4 4 165 51 262 73 324 73 628 95 869 63z m-3029 -209 c43 -16
88 -23 163 -26 96 -4 107 -6 148 -35 154 -106 373 -178 589 -195 76 -6 95 -11
125 -34 27 -21 80 -53 108 -66 2 -1 -16 -22 -40 -47 -87 -89 -142 -234 -154
-404 -7 -89 -8 -93 -28 -87 -48 15 -159 77 -275 154 -68 45 -130 84 -138 87
-18 7 -17 -22 2 -37 8 -7 15 -16 15 -20 0 -5 -29 -32 -65 -60 l-66 -52 -39 26
c-107 71 -361 312 -501 476 -58 68 -166 206 -234 299 l-39 54 30 24 c16 13 67
43 113 67 l84 43 71 -72 c55 -56 84 -77 131 -95z m467 49 c70 -53 255 -143
346 -168 97 -26 259 -45 343 -39 109 8 70 -8 -52 -22 -228 -25 -442 15 -649
121 -138 71 -131 62 -85 109 21 22 40 40 42 40 1 0 26 -18 55 -41z m2353 21
c76 -8 104 -14 119 -29 27 -28 14 -48 -47 -76 -121 -56 -388 -91 -621 -82
-150 5 -220 19 -213 41 11 32 282 117 437 135 181 22 199 23 325 11z m-3270
-123 c128 -187 309 -400 486 -572 108 -105 257 -231 286 -242 22 -9 14 -38
-19 -70 -37 -35 -69 -53 -93 -53 -8 0 -53 36 -98 81 -91 89 -157 136 -264 189
-81 40 -166 127 -296 303 -138 186 -196 302 -176 354 13 34 38 63 64 74 45 18
59 10 110 -64z m2281 -59 c185 -371 454 -781 693 -1057 l56 -64 -121 -116
c-381 -370 -804 -667 -1295 -910 -406 -202 -826 -352 -1248 -446 -219 -48
-244 -41 -339 101 -89 133 -88 128 -44 157 20 13 73 56 118 94 56 49 96 75
135 88 160 53 217 148 226 377 l6 127 69 52 c70 52 143 138 167 198 8 17 16
31 20 31 4 0 14 -30 24 -67 32 -123 124 -262 232 -351 60 -48 175 -105 260
-127 79 -21 251 -21 330 0 117 30 221 91 310 179 91 90 130 153 171 271 25 71
28 94 28 210 0 116 -3 138 -27 208 -15 42 -27 79 -27 81 0 1 21 -1 48 -5 98
-16 179 -11 231 15 65 34 182 161 223 243 27 55 32 77 32 138 1 68 -1 76 -29
105 -16 18 -50 43 -75 57 -96 55 -92 51 -75 76 8 12 15 38 15 57 0 91 -97 110
-335 66 -221 -42 -327 -34 -467 35 -51 24 -61 39 -28 39 34 0 170 29 240 52
97 30 256 111 330 167 36 27 68 50 72 50 5 1 38 -59 74 -131z m-3040 -68 c60
-111 197 -162 297 -111 20 10 37 17 37 15 0 -1 -38 -50 -84 -108 -47 -58 -92
-116 -102 -130 -9 -15 -20 -26 -24 -26 -14 0 -107 145 -144 223 -41 88 -58
161 -47 209 14 61 25 68 33 20 4 -23 19 -65 34 -92z m574 -77 c45 -87 141
-225 224 -323 49 -57 53 -65 35 -68 -35 -6 -16 -24 52 -48 149 -54 273 -138
397 -269 83 -88 135 -172 152 -250 10 -46 10 -49 -17 -77 -63 -67 -174 -102
-300 -96 -93 5 -153 24 -246 81 l-47 29 30 34 c33 38 39 64 15 64 -8 0 -15 -4
-15 -8 0 -5 -27 -30 -60 -55 -59 -47 -61 -47 -106 -37 -85 19 -201 70 -271
119 -167 117 -253 277 -253 467 l0 81 94 124 c78 104 259 309 271 309 2 0 22
-35 45 -77z m2501 -113 c10 -6 19 -17 19 -24 0 -29 -33 -41 -114 -41 -45 0
-82 -4 -84 -10 -2 -5 32 -21 76 -36 107 -36 236 -104 267 -141 21 -25 24 -36
19 -71 -20 -142 -193 -337 -300 -337 -16 0 -96 11 -179 25 -82 13 -199 29
-260 35 -171 17 -268 31 -287 41 -35 19 -16 217 32 339 27 69 79 140 127 173
34 23 43 25 78 17 68 -17 223 -12 335 9 58 11 116 22 130 24 50 8 122 7 141
-3z m-1276 -410 c3 -5 2 -10 -3 -10 -16 0 -126 -102 -172 -159 -38 -48 -86
-137 -115 -216 -6 -16 -8 -17 -13 -5 -3 8 -15 36 -28 63 l-22 47 36 16 c58 24
98 60 122 110 16 32 45 64 97 105 76 61 87 66 98 49z m85 -65 c7 -9 11 -17 9
-18 -2 -2 -25 -15 -50 -30 -72 -41 -148 -116 -201 -196 -26 -40 -48 -79 -48
-87 0 -7 -4 -16 -10 -19 -11 -7 10 57 38 111 36 70 97 143 168 199 38 30 71
55 75 55 4 0 12 -7 19 -15z m461 -178 l102 -12 48 -54 c112 -125 131 -320 47
-484 -25 -50 -88 -118 -101 -110 -5 3 -7 1 -4 -4 4 -6 -14 -24 -41 -41 -173
-110 -394 -86 -540 58 -219 215 -146 584 139 706 l49 20 99 -33 c57 -19 143
-38 202 -46z m1599 -30 c0 -2 -15 -16 -32 -33 l-33 -29 29 33 c28 30 36 37 36
29z m-3593 -224 c2 -5 -14 -30 -36 -54 l-40 -44 -1 32 c0 27 -5 34 -27 40 -26
6 -24 8 27 24 58 19 72 19 77 2z m140 -8 c26 -14 71 -33 100 -41 29 -8 55 -19
58 -24 3 -4 -17 -31 -44 -59 -27 -28 -54 -65 -61 -83 -6 -18 -19 -49 -28 -68
-8 -19 -15 -38 -14 -42 3 -12 -23 -10 -102 8 -115 27 -190 51 -194 62 -2 6 9
17 25 26 61 32 167 153 193 220 5 14 12 26 14 26 3 0 26 -11 53 -25z m327 -71
c55 -38 152 -80 214 -93 118 -25 271 -3 360 51 18 11 36 18 39 15 11 -12 -31
-110 -71 -165 -105 -142 -279 -232 -449 -232 -36 0 -69 -5 -72 -10 -19 -30
158 -41 255 -16 76 20 81 8 59 -151 -14 -106 -48 -174 -105 -212 -121 -80
-271 -54 -354 60 -63 88 -130 307 -131 429 -1 81 8 109 54 180 28 43 145 170
157 170 3 0 23 -12 44 -26z m-512 -285 c164 -40 198 -56 169 -74 -5 -3 -95 18
-200 47 -154 42 -188 55 -179 66 6 7 16 11 22 9 6 -2 91 -24 188 -48z m225
-244 c23 -88 91 -245 120 -277 19 -21 18 -23 -44 -58 l-48 -28 -48 72 c-113
167 -122 220 -52 321 20 30 40 55 44 55 3 0 16 -38 28 -85z m-127 -264 c0 -3
-16 -16 -35 -29 -20 -12 -45 -37 -55 -55 l-20 -32 0 40 c1 43 9 58 55 93 28
22 30 22 42 6 7 -10 13 -20 13 -23z m50 -71 c0 -4 -18 -19 -39 -33 -21 -14
-45 -39 -52 -56 -12 -26 -14 -27 -25 -13 -16 22 4 60 53 101 28 23 40 28 50
19 7 -6 13 -14 13 -18z m380 -85 c-13 -14 -25 -23 -27 -21 -8 8 22 46 36 46
10 0 7 -8 -9 -25z m-572 -42 c2 -9 -10 -13 -44 -13 -29 0 -54 -6 -64 -15 -16
-14 -18 -14 -23 -1 -11 29 21 47 76 44 29 -2 52 -8 55 -15z m-242 -267 c-48
-44 -50 -94 -6 -154 38 -54 87 -65 153 -37 16 6 16 4 7 -21 -15 -39 -58 -83
-97 -100 -84 -36 -483 -115 -483 -96 0 19 135 209 231 324 70 84 123 118 186
118 l44 0 -35 -34z m729 -65 c7 -13 -46 -50 -82 -57 -17 -3 -36 1 -48 10 -19
15 -18 15 15 16 19 0 46 9 60 20 27 21 46 25 55 11z m-270 -81 c-27 -53 -39
-65 -56 -54 -7 4 -3 14 13 29 14 12 30 37 37 54 8 17 17 28 22 25 5 -3 -2 -27
-16 -54z m700 -32 c-2 -13 -18 -97 -35 -187 -16 -90 -35 -170 -41 -178 -14
-16 -30 -17 -24 0 5 12 65 364 65 379 0 4 9 8 20 8 16 0 19 -5 15 -22z m330
-277 c3 -5 -18 -33 -45 -63 -28 -29 -45 -43 -38 -30 16 28 1 55 -33 61 -19 3
-13 8 31 22 64 21 77 22 85 10z"/>
</g>
</svg>
